<svg xmlns="http://www.w3.org/2000/svg" viewBox="0 0 600 460" width="600" height="460"
     role="img" aria-labelledby="t d">
  <title id="t">Impaired gallbladder emptying</title>
  <desc id="d">A distended gallbladder retaining bile, with a reduced outflow stream compared with the expected flow shown dashed.</desc>
  <defs>
    <linearGradient id="wall" x1="0.1" y1="0" x2="0.9" y2="1">
      <stop offset="0"    stop-color="#F6C4B4"/>
      <stop offset="0.36" stop-color="#E39A85"/>
      <stop offset="1"    stop-color="#B96A54"/>
    </linearGradient>
    <linearGradient id="sheen" x1="0" y1="0" x2="0.6" y2="1">
      <stop offset="0"   stop-color="#FFFFFF" stop-opacity="0.62"/>
      <stop offset="1"   stop-color="#FFFFFF" stop-opacity="0"/>
    </linearGradient>
    <linearGradient id="lumen" x1="0.2" y1="0" x2="0.8" y2="1">
      <stop offset="0"   stop-color="#F0E4C4"/>
      <stop offset="1"   stop-color="#D3BE86"/>
    </linearGradient>
    <linearGradient id="stone" x1="0.2" y1="0" x2="0.8" y2="1">
      <stop offset="0"   stop-color="#F6EBD2"/>
      <stop offset="0.5" stop-color="#DCC48E"/>
      <stop offset="1"   stop-color="#A98A52"/>
    </linearGradient>
    <linearGradient id="sludge" x1="0" y1="0" x2="0" y2="1">
      <stop offset="0"   stop-color="#CFB877" stop-opacity="0.55"/>
      <stop offset="0.35" stop-color="#B79E5E"/>
      <stop offset="1"   stop-color="#8A7238"/>
    </linearGradient>
    <linearGradient id="mass" x1="0.2" y1="0" x2="0.8" y2="1">
      <stop offset="0"   stop-color="#D8BEC4"/>
      <stop offset="0.5" stop-color="#B994A0"/>
      <stop offset="1"   stop-color="#8C6C79"/>
    </linearGradient>
    <radialGradient id="inflame" cx="0.5" cy="0.5" r="0.5">
      <stop offset="0.45" stop-color="#E4553F" stop-opacity="0.34"/>
      <stop offset="1"    stop-color="#E4553F" stop-opacity="0"/>
    </radialGradient>
    <radialGradient id="ground" cx="0.5" cy="0.45" r="0.6">
      <stop offset="0"   stop-color="#FBF3EF"/>
      <stop offset="1"   stop-color="#FFFFFF"/>
    </radialGradient>
    <clipPath id="gbClip"><path d="M370 200 C300 168 210 176 168 236 C128 292 148 366 214 386 C268 402 322 356 348 300 C362 270 372 232 370 200 Z"/></clipPath>
    <clipPath id="cutClip"><ellipse cx="258" cy="292" rx="112" ry="104"/></clipPath>
  </defs>
  <rect width="600" height="460" fill="url(#ground)"/>
  <g opacity="0.14">
    <path d="M96 176 C150 108 268 78 386 96 C452 106 508 130 522 164
             C534 194 500 214 452 210 C356 202 246 198 168 214 C118 224 88 206 96 176 Z"
          fill="#9E2F2B"/>
  </g>

  <!-- cystic duct -->
  <path d="M368 202 C400 178 432 158 470 142" fill="none" stroke="#B96A54"
        stroke-width="26" stroke-linecap="round" opacity="0.5"/>
  <path d="M368 202 C400 178 432 158 470 142" fill="none" stroke="url(#wall)"
        stroke-width="20" stroke-linecap="round"/>
  <path d="M374 198 C402 178 430 160 462 146" fill="none" stroke="#ffffff"
        stroke-width="5" stroke-linecap="round" opacity="0.34"/>
  <path d="M370 200 C300 168 210 176 168 236 C128 292 148 366 214 386 C268 402 322 356 348 300 C362 270 372 232 370 200 Z" fill="url(#wall)" stroke="#A25640" stroke-width="2.5" stroke-opacity="0.4"/>
  <path d="M196 214 C232 186 288 180 330 196" fill="none" stroke="url(#sheen)"
        stroke-width="17" stroke-linecap="round"/>
  <g clip-path="url(#gbClip)">
    <path d="M370 200 C300 168 210 176 168 236 C128 292 148 366 214 386 C268 402 322 356 348 300 C362 270 372 232 370 200 Z" transform="translate(37.10,39.90) scale(0.860)" fill="url(#lumen)" opacity="0.95"/>
    <path d="M118 246 C170 232 218 246 262 242 C306 238 348 224 386 230 L386 420 L118 420 Z"
          fill="#D9C48E" opacity="0.85"/>
    <path d="M118 246 C170 232 218 246 262 242 C306 238 348 224 386 230"
          fill="none" stroke="#A98A52" stroke-width="2.4" opacity="0.6"/>
    <g fill="#ffffff" opacity="0.2">
      <ellipse cx="212" cy="266" rx="46" ry="11"/>
      <ellipse cx="308" cy="252" rx="30" ry="8"/>
    </g>
  </g>
  <!-- expected outflow, dashed; actual outflow, short and faint -->
  <g fill="none" stroke-linecap="round">
    <path d="M392 190 C424 166 456 148 496 134" stroke="#C08670" stroke-width="5"
          stroke-dasharray="9 11" opacity="0.45"/>
    <path d="M388 194 C402 184 414 176 428 168" stroke="#C9A227" stroke-width="7"
          opacity="0.85"/>
    <path d="M424 162 L438 166 L428 176" stroke="#C9A227" stroke-width="6"
          stroke-linejoin="round"/>
  </g>
  <g stroke="#B96A54" stroke-width="2.4" fill="none" opacity="0.5">
    <path d="M196 402 C216 416 250 420 276 410"/>
    <path d="M186 392 C208 410 252 416 284 402"/>
  </g>
</svg>
